<svg width="33" height="33" viewBox="0 0 33 33"
    xmlns="http://www.w3.org/2000/svg">
    <g id="Swap">
        <path d="M16.5 33C25.6127 33 33 25.6127 33 16.5C33 7.3873 25.6127 0 16.5 0C7.3873 0 0 7.3873 0 16.5C0 25.6127 7.3873 33 16.5 33Z" fill="#1C1C1C"/>
        <path d="M11.8976 16.3681C11.9889 16.4592 12.1126 16.5104 12.2416 16.5104C12.3706 16.5104 12.4943 16.4592 12.5856 16.3681L13.2156 15.7381C13.3067 15.6468 13.3579 15.5231 13.3579 15.3941C13.3579 15.2651 13.3067 15.1414 13.2156 15.0501L12.5856 14.4201H21.2496C21.637 14.4204 22.0085 14.5744 22.2824 14.8483C22.5563 15.1222 22.7103 15.4937 22.7106 15.8811C22.7109 16.0746 22.7879 16.2601 22.9247 16.397C23.0616 16.5338 23.2471 16.6108 23.4406 16.6111H23.9276C24.1211 16.6108 24.3067 16.5338 24.4435 16.397C24.5803 16.2601 24.6573 16.0746 24.6576 15.8811C24.6565 14.9776 24.2971 14.1113 23.6583 13.4724C23.0194 12.8335 22.1531 12.4741 21.2496 12.4731H12.5856L13.2156 11.8431C13.3067 11.7518 13.3579 11.6281 13.3579 11.4991C13.3579 11.3701 13.3067 11.2464 13.2156 11.1551L12.5856 10.5251C12.4943 10.434 12.3706 10.3828 12.2416 10.3828C12.1126 10.3828 11.9889 10.434 11.8976 10.5251L9.1476 13.2741C9.10187 13.3198 9.07617 13.3819 9.07617 13.4466C9.07617 13.5113 9.10187 13.5733 9.1476 13.6191L11.8976 16.3681Z" fill="white"/>
        <path d="M21.8372 18.8016C21.7459 18.7105 21.6222 18.6593 21.4932 18.6593C21.3642 18.6593 21.2405 18.7105 21.1492 18.8016L20.5192 19.4316C20.4739 19.4767 20.4381 19.5304 20.4136 19.5894C20.3891 19.6484 20.3765 19.7117 20.3765 19.7756C20.3765 19.8395 20.3891 19.9028 20.4136 19.9618C20.4381 20.0208 20.4739 20.0745 20.5192 20.1196L21.1492 20.7496H12.4842C12.0968 20.7493 11.7253 20.5953 11.4514 20.3214C11.1774 20.0474 11.0234 19.676 11.0232 19.2886C11.0229 19.0951 10.9459 18.9095 10.8091 18.7727C10.6722 18.6359 10.4867 18.5589 10.2932 18.5586H9.80617C9.61265 18.5589 9.42712 18.6359 9.29028 18.7727C9.15343 18.9095 9.07644 19.0951 9.07617 19.2886C9.07697 20.1923 9.43625 21.0588 10.0752 21.6979C10.7141 22.337 11.5805 22.6965 12.4842 22.6976H21.1482L20.5182 23.3276C20.4729 23.3727 20.4371 23.4264 20.4126 23.4854C20.3881 23.5444 20.3755 23.6077 20.3755 23.6716C20.3755 23.7355 20.3881 23.7988 20.4126 23.8578C20.4371 23.9168 20.4729 23.9705 20.5182 24.0156L21.1482 24.6456C21.2395 24.7367 21.3632 24.7879 21.4922 24.7879C21.6212 24.7879 21.7449 24.7367 21.8362 24.6456L24.5862 21.8966C24.6319 21.8509 24.6576 21.7888 24.6576 21.7241C24.6576 21.6594 24.6319 21.5974 24.5862 21.5516L21.8372 18.8016Z" fill="white"/>
    </g>
</svg>
