<svg width="101" height="101" viewBox="0 0 101 101" fill="none" xmlns="http://www.w3.org/2000/svg">
<path d="M101 50.5C101 78.3904 78.3904 101 50.5 101C22.6096 101 0 78.3904 0 50.5C0 22.6096 22.6096 0 50.5 0C78.3904 0 101 22.6096 101 50.5ZM5.60758 50.5C5.60758 75.2934 25.7066 95.3924 50.5 95.3924C75.2934 95.3924 95.3924 75.2934 95.3924 50.5C95.3924 25.7066 75.2934 5.60758 50.5 5.60758C25.7066 5.60758 5.60758 25.7066 5.60758 50.5Z" fill="#E55F5C"/>
<rect x="27" y="32.207" width="7.3637" height="61.3642" rx="3.68185" transform="rotate(-45 27 32.207)" fill="#E55F5C"/>
<rect x="32.207" y="75.5981" width="7.3637" height="61.3642" rx="3.68185" transform="rotate(-135 32.207 75.5981)" fill="#E55F5C"/>
</svg>
